/* XPM */
static char * collide_xpm[] = {
"22 22 11 1",
" 	c None",
".	c #002ED0",
"+	c #FFFC01",
"@	c #AEBA42",
"#	c #9EAD4F",
"$	c #D1D725",
"%	c #BEC834",
"&	c #F9DD06",
"*	c #E05221",
"=	c #9FAF4E",
"-	c #F7D109",
"                      ",
"                      ",
"      ....            ",
"    ........   +      ",
"    ........   +      ",
"   .......... +       ",
"   ..........+    +   ",
"   ..........+   +    ",
"   .........@  ++     ",
"    .......#$++       ",
"    ......#%&****     ",
"      ..=@$-*******   ",
"       +  &********   ",
"      +  +**********  ",
"    ++   +**********  ",
"        + **********  ",
"       +  **********  ",
"       +   ********   ",
"           ********   ",
"             ****     ",
"                      ",
"                      "};
