/* XPM */
static char * filesave_xpm[] = {
"22 22 5 1",
" 	c None",
".	c #000000",
"+	c #848200",
"@	c #C1C1C1",
"#	c #CAB5D1",
"                      ",
" .................... ",
" .++.@@@@@@@@@@@@.@@. ",
" .++.@@@@@@@@@@@@.@@. ",
" .++.@@@@@@@@@#@@.... ",
" .++.@@@##@@@@@@@.++. ",
" .++.@@@##@@@@@@@.++. ",
" .++.@@@@@@@@@@@@.++. ",
" .++.@@@@@@@@@@@@.++. ",
" .++.@@@@@@@@@@@@.++. ",
" .++.@@@@@@@@@@@@.++. ",
" .+++............+++. ",
" .++++++++++++++++++. ",
" .++++++++++++++++++. ",
" .+++.............++. ",
" .+++.........@@@.++. ",
" .+++.........@@@.++. ",
" .+++.........@@@.++. ",
" .+++.........@@@.++. ",
" .+++.........@@@.++. ",
"  ..................  ",
"                      "};
