/* XPM */
static char * nocollide_xpm[] = {
"22 22 14 1",
" 	c None",
".	c #002ED0",
"+	c #473997",
"@	c #8E4460",
"#	c #B04A46",
"$	c #8F455F",
"%	c #6C3F7B",
"&	c #B44A43",
"*	c #B54B42",
"=	c #E05221",
"-	c #BD4C3B",
";	c #CE4F2E",
">	c #C54D35",
",	c #B94B3F",
"                      ",
"                      ",
"                      ",
"                      ",
"        ....          ",
"       ......         ",
"      ........        ",
"     ..........       ",
"     .....+@##$       ",
"     ....%&&&&*=      ",
"     ...+&&&&&-==     ",
"      ..@&&&&&;===    ",
"       .#&&&&>====    ",
"        ,**-;=====    ",
"        ==========    ",
"         ========     ",
"          ======      ",
"           ====       ",
"                      ",
"                      ",
"                      ",
"                      "};
