/* XPM */
static char * rotateTool_xpm[] = {
"22 22 4 1",
" 	c None",
".	c #000000",
"+	c #FFFFFF",
"@	c #D9D9D9",
"                      ",
"        ......        ",
"      .. .... ..      ",
"    ..  +@..@+  ..    ",
"   .. ++++..++++ ..   ",
"   . +++++..+++++ .   ",
"  . ++++++..++++++ .  ",
"  . ++++++++++++++ .  ",
" . +++++++..+++++++ . ",
" . +++++++..+++++++ . ",
" ......+......+...... ",
" ......+......+...... ",
" . +++++++..+++++++ . ",
" . +++++++..+++++++ . ",
"  . ++++++++++++++ .  ",
"  . ++++++..++++++ .  ",
"   . +++++..+++++ .   ",
"   .. ++++..++++ ..   ",
"    ..  +@..@+  ..    ",
"      .. .... ..      ",
"        ......        ",
"                      "};
