/* XPM */
static char * translateTool_xpm[] = {
"22 22 4 1",
" 	c None",
".	c #000000",
"+	c #FFFFFF",
"@	c #7F7F7F",
"                      ",
"    .............     ",
"    ..++++++++++@.    ",
"    .+.+++++++++@+.   ",
"    .++.............  ",
"    .++.++++++++@++.  ",
"    .++.++++++++@++.  ",
"    .++.++++++++@++.  ",
"    .++.+++++.++@++.  ",
"    .++.++++...+@++.  ",
"    .++.+++++.++@++.  ",
"    .++.++.++.++.++.  ",
"    .++.+.........+.  ",
"    .++.++.++.++.++.  ",
"    .++.+++++.++@++.  ",
"    .++.++++...+@++.  ",
"    .++.+++++.++@++.  ",
"    .@@.@@@@@@@@@++.  ",
"     .+.+++++++++@+.  ",
"      ..++++++++++@.  ",
"       .............  ",
"                      "};
